<?xml version="1.0" encoding="utf-8"?>
<!-- Generator: Adobe Illustrator 25.2.1, SVG Export Plug-In . SVG Version: 6.00 Build 0)  -->
<svg version="1.1" id="Layer_1" xmlns="http://www.w3.org/2000/svg" xmlns:xlink="http://www.w3.org/1999/xlink" x="0px" y="0px"
	 viewBox="0 0 60 60" style="enable-background:new 0 0 60 60;" xml:space="preserve">
<style type="text/css">
	.st0{fill:#FFFFFF;}
</style>
<path class="st0" d="M-47.7,75.2h-35.6c-2.8,0-5,2.2-5,5v13c0,0.7,0.6,1.2,1.2,1.2h0c0.7,0,1.2-0.6,1.2-1.2v-13
	c0-1.4,1.1-2.5,2.5-2.5h35.6c1.4,0,2.5,1.1,2.5,2.5v35.6c0,1.4-1.1,2.5-2.5,2.5h-13c-0.7,0-1.2,0.6-1.2,1.2v0c0,0.7,0.6,1.2,1.2,1.2
	h13c2.8,0,5-2.2,5-5V80.2C-42.7,77.5-44.9,75.2-47.7,75.2z"/>
<path class="st0" d="M-70.1,97.7h-13.1c-2.8,0-5,2.2-5,5v13.1c0,2.8,2.2,5,5,5h13.1c2.8,0,5-2.2,5-5v-13.1
	C-65.1,100-67.4,97.7-70.1,97.7z M-67.6,115.8c0,1.4-1.1,2.5-2.5,2.5h-13.1c-1.4,0-2.5-1.1-2.5-2.5v-13.1c0-1.4,1.1-2.5,2.5-2.5
	h13.1c1.4,0,2.5,1.1,2.5,2.5V115.8z"/>
<path class="st0" d="M-52.4,85.5c-0.1-0.2-0.3-0.4-0.5-0.5c-0.1-0.1-0.3-0.1-0.4-0.1H-60c-0.6,0-1,0.5-1,1c0,0.6,0.5,1,1,1h4.2l-7,7
	c-0.4,0.4-0.4,1,0,1.4c0.2,0.2,0.5,0.3,0.7,0.3s0.5-0.1,0.7-0.3l7-7v4.4c0,0.6,0.5,1,1,1c0.6,0,1-0.5,1-1v-6.9c0,0,0,0,0,0
	C-52.3,85.8-52.4,85.6-52.4,85.5z"/>
<path class="st0" d="M47.8,52.8H12.2c-2.8,0-5-2.2-5-5v-13c0-0.7,0.6-1.2,1.2-1.2h0c0.7,0,1.2,0.6,1.2,1.2v13c0,1.4,1.1,2.5,2.5,2.5
	h35.6c1.4,0,2.5-1.1,2.5-2.5V12.2c0-1.4-1.1-2.5-2.5-2.5h-13c-0.7,0-1.2-0.6-1.2-1.2v0c0-0.7,0.6-1.2,1.2-1.2h13c2.8,0,5,2.2,5,5
	v35.6C52.8,50.6,50.6,52.8,47.8,52.8z"/>
<path class="st0" d="M30.3,25.3V12.2c0-2.8-2.2-5-5-5H12.2c-2.8,0-5,2.2-5,5v13.1c0,2.8,2.3,5,5,5h13.1
	C28.1,30.3,30.3,28.1,30.3,25.3z M27.8,25.3c0,1.4-1.1,2.5-2.5,2.5H12.2c-1.4,0-2.5-1.1-2.5-2.5V12.2c0-1.4,1.1-2.5,2.5-2.5h13.1
	c1.4,0,2.5,1.1,2.5,2.5V25.3z"/>
<path class="st0" d="M363.3,101c0.1-0.2,0.3-0.4,0.5-0.5c0.1-0.1,0.3-0.1,0.4-0.1h6.7c0.6,0,1,0.5,1,1c0,0.6-0.5,1-1,1h-4.2l7,7
	c0.4,0.4,0.4,1,0,1.4c-0.2,0.2-0.5,0.3-0.7,0.3s-0.5-0.1-0.7-0.3l-7-7v4.4c0,0.6-0.5,1-1,1c-0.6,0-1-0.5-1-1v-6.9c0,0,0,0,0,0
	C363.3,101.3,363.3,101.1,363.3,101z"/>
</svg>
